:FULLY-SPECIFIED
:FORCE-ALL-JOINTS-BE-3DOF
:DEGREES
2650
root -1.75996 15.0949 -28.5927 21.4385 -77.8075 -23.448
lfemur -33.9207 22.214 -6.5865
ltibia 82.3651 0 0
lfoot -3.3513 14.6879 -0.255121
ltoes -15.9951 0 0
rfemur -42.0251 -25.506 24.1816
rtibia 70.0814 0 0
rfoot -18.0541 -13.997 -0.0586665
rtoes -4.85249 0 0
lowerback 16.999 1.43582 -2.19077
upperback -0.830127 1.70145 2.57152
thorax -10.4338 1.00146 3.6881
lowerneck -3.36693 3.56346 -2.41014
upperneck 4.23341 4.63656 4.50278
head 1.91515 2.38237 1.99898
lclavicle -3.21762e-14 -8.56477e-15 -2.84466e-31
lhumerus 51.1503 -52.0276 53.5207
lradius 119.99 0 0
lwrist 32.1124 0 0
lhand -28.0519 41.1509 0.427092
lfingers 7.12502 0 0
lthumb -1.43417 70.9754 0.409704
rclavicle -3.21762e-14 -8.56477e-15 -2.84466e-31
rhumerus -7.43475 39.632 -71.1653
rradius 90.7929 0 0
rwrist -2.93099 0 0
rhand -20.1405 -26.9802 0.194329
rfingers 7.12502 0 0
rthumb 6.19149 -56.6366 0.239574
2651
root -1.87331 15.0954 -28.5656 22.8324 -78.523 -24.9731
lfemur -34.0919 22.4504 -6.53145
ltibia 81.1311 0 0
lfoot -2.75131 14.687 -0.291031
ltoes -15.2914 0 0
rfemur -41.7217 -25.239 23.9787
rtibia 70.2909 0 0
rfoot -18.2898 -13.9657 -0.0653911
rtoes -4.8345 0 0
lowerback 16.9749 1.57287 -2.05957
upperback -0.828142 1.9039 2.50236
thorax -10.4096 1.08781 3.48952
lowerneck -3.31112 3.66424 -2.31794
upperneck 4.36134 4.7609 4.44836
head 1.96903 2.44492 1.97293
lclavicle -3.3347e-14 -8.56124e-15 -3.23291e-31
lhumerus 48.3026 -51.1021 55.6458
lradius 119.563 0 0
lwrist 30.7243 0 0
lhand -28.282 40.7457 0.469512
lfingers 7.12502 0 0
lthumb -1.65633 70.5486 0.448992
rclavicle -3.3347e-14 -8.56124e-15 -3.23291e-31
rhumerus -7.758 40.4389 -71.3542
rradius 91.6068 0 0
rwrist -5.3853 0 0
rhand -19.5448 -26.8795 0.211386
rfingers 7.12502 0 0
rthumb 6.76545 -56.4984 0.260296
2652
root -1.98665 15.0958 -28.5384 24.7888 -79.3901 -27.0754
lfemur -34.2687 22.7154 -6.45286
ltibia 79.7621 0 0
lfoot -2.05684 14.6686 -0.326705
ltoes -14.4924 0 0
rfemur -41.3684 -24.9505 23.755
rtibia 70.4936 0 0
rfoot -18.5572 -13.9219 -0.0722599
rtoes -4.82929 0 0
lowerback 16.9461 1.72485 -1.90954
upperback -0.826499 2.12926 2.42628
thorax -10.3818 1.18381 3.26723
lowerneck -3.25546 3.79604 -2.20328
upperneck 4.50372 4.92622 4.3737
head 2.02692 2.52794 1.93829
lclavicle -3.46842e-14 -8.56965e-15 -3.6243e-31
lhumerus 45.3257 -49.9738 57.8382
lradius 119.116 0 0
lwrist 29.1447 0 0
lhand -28.5695 40.2911 0.513488
lfingers 7.12502 0 0
lthumb -1.93397 70.072 0.490007
rclavicle -3.46842e-14 -8.56965e-15 -3.6243e-31
rhumerus -8.20259 41.3161 -71.6248
rradius 92.5055 0 0
rwrist -8.12023 0 0
rhand -18.8839 -26.76 0.229172
rfingers 7.12502 0 0
rthumb 7.40215 -56.3371 0.281801
2653
root -2.09999 15.0963 -28.5112 27.5978 -80.412 -30.0458
lfemur -34.4505 23.011 -6.34838
ltibia 78.2503 0 0
lfoot -1.26061 14.6307 -0.361515
ltoes -13.5915 0 0
rfemur -40.9617 -24.6395 23.5098
rtibia 70.6873 0 0
rfoot -18.8584 -13.8645 -0.0791358
rtoes -4.83846 0 0
lowerback 16.9124 1.89264 -1.73936
upperback -0.825307 2.37893 2.34289
thorax -10.3504 1.29006 3.01972
lowerneck -3.20013 3.96176 -2.06412
upperneck 4.66129 5.13661 4.27694
head 2.08892 2.63346 1.89423
lclavicle -3.61999e-14 -8.59143e-15 -4.01192e-31
lhumerus 42.2486 -48.6202 60.0646
lradius 118.65 0 0
lwrist 27.3601 0 0
lhand -28.9199 39.7838 0.558054
lfingers 7.12502 0 0
lthumb -2.27219 69.5425 0.531829
rclavicle -3.61999e-14 -8.59143e-15 -4.01192e-31
rhumerus -8.78639 42.2653 -71.9918
rradius 93.4938 0 0
rwrist -11.1532 0 0
rhand -18.1541 -26.6203 0.247257
rfingers 7.12502 0 0
rthumb 8.10533 -56.1509 0.303559
2654
root -2.21333 15.0967 -28.4841 31.7817 -81.581 -34.4075
lfemur -34.6367 23.3392 -6.21556
ltibia 76.5874 0 0
lfoot -0.355337 14.5713 -0.394669
ltoes -12.5821 0 0
rfemur -40.4981 -24.3047 23.2427
rtibia 70.87 0 0
rfoot -19.1958 -13.792 -0.085841
rtoes -4.8636 0 0
lowerback 16.8735 2.07717 -1.54768
upperback -0.824693 2.65432 2.25182
thorax -10.315 1.40721 2.74548
lowerneck -3.14528 4.16438 -1.89833
upperneck 4.83473 5.3962 4.1563
head 2.15511 2.76348 1.83996
lclavicle -3.79061e-14 -8.62799e-15 -4.38683e-31
lhumerus 39.1019 -47.02 62.2892
lradius 118.165 0 0
lwrist 25.3568 0 0
lhand -29.3384 39.2206 0.601945
lfingers 7.12502 0 0
lthumb -2.67613 68.9568 0.573245
rclavicle -3.79061e-14 -8.62799e-15 -4.38683e-31
rhumerus -9.52956 43.2877 -72.4721
rradius 94.5767 0 0
rwrist -14.5015 0 0
rhand -17.3513 -26.4586 0.265081
rfingers 7.12502 0 0
rthumb 8.87873 -55.9379 0.324887
2655
root -2.32668 15.0971 -28.4569 38.3478 -82.8652 -41.1686
lfemur -34.8264 23.7021 -6.05196
ltibia 74.7656 0 0
lfoot 0.666256 14.4882 -0.42518
ltoes -11.4573 0 0
rfemur -39.9745 -23.9447 22.9532
rtibia 71.0395 0 0
rfoot -19.5714 -13.7034 -0.0921474
rtoes -4.90632 0 0
lowerback 16.8292 2.27934 -1.33316
upperback -0.8248 2.95685 2.15269
thorax -10.2757 1.53587 2.443
lowerneck -3.09097 4.40688 -1.70382
upperneck 5.02452 5.70897 4.01013
head 2.22556 2.92003 1.7747
lclavicle -3.9815e-14 -8.68074e-15 -4.73768e-31
lhumerus 35.9163 -45.1533 64.4755
lradius 117.661 0 0
lwrist 23.1212 0 0
lhand -29.8303 38.5981 0.643553
lfingers 7.12502 0 0
lthumb -3.15089 68.3118 0.61271
rclavicle -3.9815e-14 -8.68074e-15 -4.73768e-31
rhumerus -10.4551 44.3833 -73.0856
rradius 95.7588 0 0
rwrist -18.1826 0 0
rhand -16.4719 -26.2736 0.281939
rfingers 7.12502 0 0
rthumb 9.72609 -55.6963 0.344932
2656
root -2.44002 15.0976 -28.4297 49.3307 -84.1719 -52.3647
lfemur -35.0189 24.1015 -5.85514
ltibia 72.7768 0 0
lfoot 1.81145 14.3795 -0.451829
ltoes -10.2106 0 0
rfemur -39.3874 -23.5581 22.6413
rtibia 71.1938 0 0
rfoot -19.9876 -13.5972 -0.0977808
rtoes -4.96821 0 0
lowerback 16.7794 2.50012 -1.09447
upperback -0.825794 3.2879 2.04509
thorax -10.2323 1.67662 2.11092
lowerneck -3.03718 4.69206 -1.47858
upperneck 5.2313 6.07936 3.83662
head 2.30025 3.10499 1.69771
lclavicle -4.19387e-14 -8.7511e-15 -5.05035e-31
lhumerus 32.72 -43.0018 66.5882
lradius 117.138 0 0
lwrist 20.6395 0 0
lhand -30.4008 37.9131 0.680884
lfingers 7.12502 0 0
lthumb -3.70157 67.6042 0.648299
rclavicle -4.19387e-14 -8.7511e-15 -5.05035e-31
rhumerus -11.5895 45.5509 -73.8558
rradius 97.0449 0 0
rwrist -22.2139 0 0
rhand -15.5118 -26.0635 0.296963
rfingers 7.12502 0 0
rthumb 10.6511 -55.4242 0.362649
2657
root -2.55336 15.098 -28.4026 68.3994 -85.2489 -71.6655
lfemur -35.2132 24.5397 -5.62254
ltibia 70.6129 0 0
lfoot 3.08752 14.2433 -0.473135
ltoes -8.83511 0 0
rfemur -38.7337 -23.1432 22.307
rtibia 71.3308 0 0
rfoot -20.4466 -13.4723 -0.102397
rtoes -5.05089 0 0
lowerback 16.7238 2.74032 -0.8304
upperback -0.827861 3.6487 1.92871
thorax -10.1847 1.83023 1.7475
lowerneck -2.9837 5.02308 -1.2203
upperneck 5.45539 6.51151 3.63425
head 2.37928 3.32063 1.60813
lclavicle -4.42893e-14 -8.84048e-15 -5.30744e-31
lhumerus 29.5371 -40.5491 68.5949
lradius 116.598 0 0
lwrist 17.8982 0 0
lhand -31.0553 37.1624 0.711506
lfingers 7.12502 0 0
lthumb -4.33323 66.831 0.677663
rclavicle -4.42893e-14 -8.84048e-15 -5.30744e-31
rhumerus -12.9637 46.7872 -74.8105
rradius 98.44 0 0
rwrist -26.6126 0 0
rhand -14.4672 -25.8269 0.309103
rfingers 7.12502 0 0
rthumb 11.6576 -55.1199 0.376779
2658
root -2.66671 15.0985 -28.3754 97.315 -85.5445 -100.833
lfemur -35.4082 25.0184 -5.35166
ltibia 68.266 0 0
lfoot 4.50172 14.0777 -0.487312
ltoes -7.32427 0 0
rfemur -38.0105 -22.6984 21.9504
rtibia 71.4483 0 0
rfoot -20.9506 -13.3274 -0.105584
rtoes -5.15595 0 0
lowerback 16.6623 3.0011 -0.539416
upperback -0.831214 4.04097 1.80302
thorax -10.1329 1.9973 1.35133
lowerneck -2.9303 5.40281 -0.926913
upperneck 5.69702 7.00968 3.40148
head 2.46259 3.56888 1.50524
lclavicle -4.68787e-14 -8.9503e-15 -5.48789e-31
lhumerus 26.3863 -37.7809 70.4667
lradius 116.04 0 0
lwrist 14.8837 0 0
lhand -31.7989 36.3428 0.732496
lfingers 7.12502 0 0
lthumb -5.05087 65.9889 0.697982
rclavicle -4.68787e-14 -8.9503e-15 -5.48789e-31
rhumerus -14.6137 48.087 -75.9831
rradius 99.9488 0 0
rwrist -31.3963 0 0
rhand -13.3343 -25.5622 0.317109
rfingers 7.12502 0 0
rthumb 12.7493 -54.7815 0.385827
2659
root -2.78005 15.0989 -28.3482 125.565 -84.5561 -129.356
lfemur -35.6026 25.5399 -5.03983
ltibia 65.7281 0 0
lfoot 6.0613 13.8808 -0.492233
ltoes -5.67133 0 0
rfemur -37.2147 -22.2217 21.5719
rtibia 71.5443 0 0
rfoot -21.5018 -13.1612 -0.106852
rtoes -5.28499 0 0
lowerback 16.5949 3.28335 -0.220291
upperback -0.836089 4.46597 1.66767
thorax -10.0768 2.17852 0.920918
lowerneck -2.87652 5.8342 -0.596226
upperneck 5.95629 7.5782 3.13687
head 2.55014 3.85177 1.38829
lclavicle -4.97191e-14 -9.08198e-15 -5.56641e-31
lhumerus 23.2798 -34.6848 72.1791
lradius 115.464 0 0
lwrist 11.5822 0 0
lhand -32.6367 35.4511 0.740392
lfingers 7.12502 0 0
lthumb -5.85942 65.0751 0.705909
rclavicle -4.97191e-14 -9.08198e-15 -5.56641e-31
rhumerus -16.5818 49.4415 -77.4131
rradius 101.576 0 0
rwrist -36.5823 0 0
rhand -12.1092 -25.2681 0.319508
rfingers 7.12502 0 0
rthumb 13.9297 -54.4074 0.38804
2660
root -2.89339 15.0994 -28.3211 143.739 -82.4802 -147.825
lfemur -35.795 26.1062 -4.68431
ltibia 62.991 0 0
lfoot 7.77347 13.651 -0.485391
ltoes -3.86959 0 0
rfemur -36.3437 -21.7113 21.1724
rtibia 71.6166 0 0
rfoot -22.1024 -12.9726 -0.105622
rtoes -5.43961 0 0
lowerback 16.5216 3.58806 0.128287
upperback -0.842757 4.9251 1.52224
thorax -10.0167 2.37457 0.454771
lowerneck -2.82179 6.32018 -0.226027
upperneck 6.23314 8.22143 2.83904
head 2.64178 4.17122 1.2566
lclavicle -5.28227e-14 -9.23692e-15 -5.513e-31
lhumerus 20.2228 -31.2504 73.7114
lradius 114.872 0 0
lwrist 7.98017 0 0
lhand -33.5737 34.4844 0.731135
lfingers 7.12502 0 0
lthumb -6.76371 64.0865 0.697522
rclavicle -5.28227e-14 -9.23692e-15 -5.513e-31
rhumerus -18.9177 50.8381 -79.1473
rradius 103.327 0 0
rwrist -42.188 0 0
rhand -10.7881 -24.943 0.314586
rfingers 7.12502 0 0
rthumb 15.2027 -53.9959 0.381382
2661
root -3.00674 15.0998 -28.2939 154.213 -79.7003 -158.619
lfemur -35.9838 26.7193 -4.28223
ltibia 60.0469 0 0
lfoot 9.64541 13.387 -0.463859
ltoes -1.91236 0 0
rfemur -35.3947 -21.1649 20.7525
rtibia 71.6631 0 0
rfoot -22.7547 -12.7603 -0.101221
rtoes -5.62141 0 0
lowerback 16.4424 3.91623 0.50763
upperback -0.851515 5.41975 1.3663
thorax -9.95247 2.58615 -0.0486081
lowerneck -2.76531 6.86368 0.185945
upperneck 6.52733 8.94377 2.50666
head 2.73746 4.52951 1.10933
lclavicle -5.62014e-14 -9.41654e-15 -5.29236e-31
lhumerus 17.2138 -27.4689 75.0462
lradius 114.263 0 0
lwrist 4.06394 0 0
lhand -34.6147 33.4399 0.700017
lfingers 7.12502 0 0
lthumb -7.76844 63.0204 0.668274
rclavicle -5.62014e-14 -9.41654e-15 -5.29236e-31
rhumerus -21.679 52.2589 -81.2405
rradius 105.205 0 0
rwrist -48.2308 0 0
rhand -9.36715 -24.5857 0.300371
rfingers 7.12502 0 0
rthumb 16.5717 -53.5454 0.363515
2662
root -3.12008 15.1002 -28.2668 160.526 -76.409 -165.276
lfemur -36.1671 27.3813 -3.8306
ltibia 56.8876 0 0
lfoot 11.6843 13.0873 -0.424258
ltoes 0.207074 0 0
rfemur -34.3653 -20.5803 20.3136
rtibia 71.6818 0 0
rfoot -23.4608 -12.5232 -0.0928655
rtoes -5.83199 0 0
lowerback 16.3574 4.26887 0.919046
upperback -0.862702 5.95133 1.1994
thorax -9.88435 2.81398 -0.590715
lowerneck -2.7061 7.46763 0.642012
upperneck 6.8384 9.7497 2.1385
head 2.83697 4.92857 0.945821
lclavicle -5.98674e-14 -9.62226e-15 -4.86335e-31
lhumerus 14.244 -23.3332 76.168
lradius 113.637 0 0
lwrist -0.180135 0 0
lhand -35.7645 32.3149 0.64163
lfingers 7.12502 0 0
lthumb -8.8781 61.8743 0.612938
rclavicle -5.98674e-14 -9.62226e-15 -4.86335e-31
rhumerus -24.9312 53.6788 -83.7554
rradius 107.217 0 0
rwrist -54.728 0 0
rhand -7.84257 -24.195 0.274603
rfingers 7.12502 0 0
rthumb 18.0406 -53.0545 0.331769
